<svg width="983" height="417" viewBox="0 0 983 417" fill="none" xmlns="http://www.w3.org/2000/svg">
<path d="M519.13 347.074C513.539 344.172 512.801 332.92 516.177 326.621C518.932 321.44 524.112 316.996 530.945 313.954L795.397 177.506C530.598 245.343 272.912 325.07 24.088 416.146C17.5478 418.553 12.4845 406.168 15.2272 397.888C17.3959 391.374 22.9253 385.584 30.8389 381.539C82.0344 351.628 133.898 323.98 186.43 298.596C215.439 284.442 244.551 271.349 273.772 258.044C458.582 173.827 643.919 89.4666 834.214 31.5755C554.994 66.5367 278.412 134.972 8.26513 235.681C2.35797 237.873 -2.28338 226.126 1.19763 218.978C2.29729 216.346 4.26052 213.912 6.94354 211.855C9.62656 209.798 12.9614 208.168 16.7039 207.089C326.408 95.4821 644.446 23.9323 964.594 0.790096C967.583 0.234673 970.764 0.364712 973.629 1.15959C976.495 1.95447 978.885 3.36867 980.416 5.17791C984.53 10.1319 983.687 21.8092 978.202 22.4462C817.864 42.1914 663.012 108.716 509.743 175.1C382.421 230.018 255.206 285.291 130.733 350.966L505.627 237.733C617.654 203.408 729.89 169.791 843.813 150.684C847.14 149.646 850.898 149.41 854.454 150.016C858.01 150.622 861.144 152.033 863.328 154.01C868.813 159.318 869.236 173.188 862.695 175.737C743.03 223.521 631.656 280.084 530.627 344.385C527.042 346.65 522.927 348.985 519.13 347.074Z" fill="#EFF1F0"/>
</svg>
